<?xml version="1.0" encoding="UTF-8" standalone="no"?>
<!-- Generator: Adobe Illustrator 24.0.2, SVG Export Plug-In . SVG Version: 6.00 Build 0)  -->

<svg
   xmlns:dc="http://purl.org/dc/elements/1.1/"
   xmlns:cc="http://creativecommons.org/ns#"
   xmlns:rdf="http://www.w3.org/1999/02/22-rdf-syntax-ns#"
   xmlns:svg="http://www.w3.org/2000/svg"
   xmlns="http://www.w3.org/2000/svg"
   xmlns:xlink="http://www.w3.org/1999/xlink"
   xmlns:sodipodi="http://sodipodi.sourceforge.net/DTD/sodipodi-0.dtd"
   xmlns:inkscape="http://www.inkscape.org/namespaces/inkscape"
   version="1.1"
   id="Layer_1"
   x="0px"
   y="0px"
   viewBox="0 0 1020 1020"
   xml:space="preserve"
   inkscape:version="0.48.5 r10040"
   width="100%"
   height="100%"
   sodipodi:docname="Department_of_Human_Settlements_and_Urban_Development.svg"><title
   id="title15386">Department of Human Settlements and Urban Development (DHSUD)</title><metadata
   id="metadata3816"><rdf:RDF><cc:Work
       rdf:about=""><dc:format>image/svg+xml</dc:format><dc:type
         rdf:resource="http://purl.org/dc/dcmitype/StillImage" /><cc:license
         rdf:resource="http://creativecommons.org/licenses/publicdomain/" /><dc:title>Department of Human Settlements and Urban Development (DHSUD)</dc:title></cc:Work><cc:License
       rdf:about="http://creativecommons.org/licenses/publicdomain/"><cc:permits
         rdf:resource="http://creativecommons.org/ns#Reproduction" /><cc:permits
         rdf:resource="http://creativecommons.org/ns#Distribution" /><cc:permits
         rdf:resource="http://creativecommons.org/ns#DerivativeWorks" /></cc:License></rdf:RDF></metadata><defs
   id="defs3814"><clipPath
     id="SVGID_4_-1-99-5"><use
       height="730"
       width="730"
       y="0"
       x="0"
       style="overflow:visible"
       id="use5444-4-9-1"
       overflow="visible"
       xlink:href="#SVGID_3_" /></clipPath><clipPath
     id="SVGID_4_-1-99"><use
       height="730"
       width="730"
       y="0"
       x="0"
       style="overflow:visible"
       id="use5444-4-9"
       overflow="visible"
       xlink:href="#SVGID_3_" /></clipPath><clipPath
     id="SVGID_4_-1-9"><use
       height="730"
       width="730"
       y="0"
       x="0"
       style="overflow:visible"
       id="use5444-4-4"
       overflow="visible"
       xlink:href="#SVGID_3_" /></clipPath><clipPath
     id="SVGID_4_-3-7"><use
       xlink:href="#SVGID_3_-2"
       overflow="visible"
       id="use5444-8-2"
       style="overflow:visible"
       x="0"
       y="0"
       width="730"
       height="730" /></clipPath><clipPath
     id="SVGID_4_-1-8"><use
       xlink:href="#SVGID_3_-2"
       overflow="visible"
       id="use5444-4-7"
       style="overflow:visible"
       x="0"
       y="0"
       width="730"
       height="730" /></clipPath><clipPath
     id="SVGID_4_-15"><use
       xlink:href="#SVGID_3_-2"
       overflow="visible"
       id="use5444-9"
       style="overflow:visible"
       x="0"
       y="0"
       width="730"
       height="730" /></clipPath><defs
     id="defs5440-2"><polygon
       id="SVGID_3_-2"
       points="354.2,381 126.5,378 126.5,98.8 354.2,101.8 " /></defs><clipPath
     id="SVGID_2_-2"><use
       height="730"
       width="730"
       y="0"
       x="0"
       style="overflow:visible"
       id="use5436-7"
       overflow="visible"
       xlink:href="#SVGID_1_-0" /></clipPath><defs
     id="defs5432-6"><polygon
       points="124.9,101.3 354.2,102 354.2,381 124.9,380.3 "
       id="SVGID_1_-0" /></defs><clipPath
     id="SVGID_4_-19"><use
       xlink:href="#SVGID_3_-4"
       overflow="visible"
       id="use5444-6"
       style="overflow:visible"
       x="0"
       y="0"
       width="730"
       height="730" /></clipPath><defs
     id="defs5440-4"><polygon
       id="SVGID_3_-4"
       points="126.5,98.8 354.2,101.8 354.2,381 126.5,378 " /></defs><clipPath
     id="SVGID_2_-6"><use
       height="730"
       width="730"
       y="0"
       x="0"
       style="overflow:visible"
       id="use5436-2"
       overflow="visible"
       xlink:href="#SVGID_1_-4" /></clipPath><defs
     id="defs5432-0"><polygon
       points="354.2,381 124.9,380.3 124.9,101.3 354.2,102 "
       id="SVGID_1_-4" /></defs><clipPath
     id="SVGID_4_-3"><use
       height="730"
       width="730"
       y="0"
       x="0"
       style="overflow:visible"
       id="use5444-8"
       overflow="visible"
       xlink:href="#SVGID_3_" /></clipPath><clipPath
     id="SVGID_4_-1"><use
       height="730"
       width="730"
       y="0"
       x="0"
       style="overflow:visible"
       id="use5444-4"
       overflow="visible"
       xlink:href="#SVGID_3_" /></clipPath><clipPath
     id="SVGID_4_"><use
       height="730"
       width="730"
       y="0"
       x="0"
       style="overflow:visible"
       id="use5444"
       overflow="visible"
       xlink:href="#SVGID_3_" /></clipPath><defs
     id="defs5440"><polygon
       points="126.5,98.8 354.2,101.8 354.2,381 126.5,378 "
       id="SVGID_3_" /></defs><clipPath
     id="SVGID_2_"><use
       xlink:href="#SVGID_1_"
       overflow="visible"
       id="use5436"
       style="overflow:visible"
       x="0"
       y="0"
       width="730"
       height="730" /></clipPath><defs
     id="defs5432"><polygon
       id="SVGID_1_"
       points="354.2,381 124.9,380.3 124.9,101.3 354.2,102 " /></defs><path
     d="M 0,-1 0.587785,0.809017 -0.951057,-0.309017 H 0.951057 L -0.587785,0.809017 z"
     id="s"
     inkscape:connector-curvature="0"
     style="fill:#ffde00" /></defs><sodipodi:namedview
   pagecolor="#ffffff"
   bordercolor="#666666"
   borderopacity="1"
   objecttolerance="10"
   gridtolerance="10"
   guidetolerance="10"
   inkscape:pageopacity="0"
   inkscape:pageshadow="2"
   inkscape:window-width="1366"
   inkscape:window-height="705"
   id="namedview3812"
   showgrid="false"
   inkscape:snap-bbox="false"
   inkscape:bbox-nodes="true"
   inkscape:bbox-paths="true"
   inkscape:snap-bbox-edge-midpoints="true"
   inkscape:snap-bbox-midpoints="true"
   inkscape:object-paths="false"
   inkscape:snap-intersection-paths="true"
   inkscape:object-nodes="false"
   inkscape:snap-smooth-nodes="false"
   inkscape:snap-midpoints="false"
   inkscape:snap-object-midpoints="true"
   inkscape:snap-center="true"
   inkscape:snap-global="true"
   fit-margin-top="0"
   fit-margin-left="0"
   fit-margin-right="0"
   fit-margin-bottom="0"
   inkscape:zoom="0.16732663"
   inkscape:cx="492.00676"
   inkscape:cy="-218.95938"
   inkscape:window-x="-8"
   inkscape:window-y="-8"
   inkscape:window-maximized="1"
   inkscape:current-layer="Layer_1" />

<g
   id="g15307"><path
     transform="matrix(160.9122,0,0,1.5472327,-56100,14.75093)"
     d="m 354.97619,320.08701 a 3.1694303,329.62076 0 1 1 -6.33886,0 3.1694303,329.62076 0 1 1 6.33886,0 z"
     sodipodi:ry="329.62076"
     sodipodi:rx="3.1694303"
     sodipodi:cy="320.08701"
     sodipodi:cx="351.80676"
     id="path14887"
     style="color:#000000;fill:#0038a8;fill-opacity:1;fill-rule:nonzero;stroke:none;stroke-width:0.1;marker:none;visibility:visible;display:inline;overflow:visible;enable-background:accumulate"
     sodipodi:type="arc" /><path
     transform="matrix(91.657811,0,0,2.5819101,-32835.973,-96.00326)"
     d="m 368.29164,234.71123 a 4.4822512,159.11992 0 1 1 -8.9645,0 4.4822512,159.11992 0 1 1 8.9645,0 z"
     sodipodi:ry="159.11992"
     sodipodi:rx="4.4822512"
     sodipodi:cy="234.71123"
     sodipodi:cx="363.80939"
     id="path14885"
     style="color:#000000;fill:#ffffff;fill-opacity:1;fill-rule:nonzero;stroke:none;stroke-width:0.1;marker:none;visibility:visible;display:inline;overflow:visible;enable-background:accumulate"
     sodipodi:type="arc" /><path
     inkscape:connector-curvature="0"
     id="circle3059"
     d="m 510.50646,314.35085 -4.53058,4.53055 2.22897,34.30639 c -0.76382,0.0492 -1.50354,0.12041 -2.25318,0.21806 l -4.14293,-31.30215 -3.68261,3.68261 5.57236,27.98295 c -4.57791,0.90584 -8.85509,2.7022 -12.59836,5.20894 l -15.84491,-23.71888 -5.23318,0 19.23676,25.05141 c -0.60317,0.46369 -1.19753,0.95234 -1.76862,1.45365 l -22.6771,-25.85092 -6.39611,0 0,6.39611 25.85092,22.67709 c -0.50186,0.57177 -0.9895,1.16472 -1.45366,1.76863 l -25.0514,-19.23678 0,5.23318 23.71888,15.86911 c -2.50603,3.7427 -4.30335,7.99731 -5.20895,12.57416 l -27.98295,-5.57236 -3.68261,3.68261 31.30215,4.14293 c -0.0975,0.74974 -0.16883,1.4896 -0.21806,2.25318 l -34.30638,-2.22895 -4.53056,4.53057 4.53056,4.53058 34.30638,-2.25319 c 0.0496,0.76398 0.12042,1.52763 0.21806,2.2774 l -31.30215,4.11872 3.68261,3.68261 27.98295,-5.54813 c 0.90569,4.57775 2.70174,8.83005 5.20895,12.57415 l -23.71888,15.84489 0,5.23317 25.0514,-19.23675 c 0.46376,0.6034 0.95234,1.19729 1.45366,1.76861 l -25.85092,22.67707 0,6.39613 6.39611,0 22.6771,-25.85093 c 0.57193,0.50225 1.1646,0.98908 1.76862,1.45366 l -19.23676,25.05141 5.23318,0 15.8691,-23.71889 c 3.74169,2.50819 7.99689,4.30325 12.57418,5.20894 l -5.57238,27.98298 3.68262,3.7068 4.14294,-31.32637 c 0.74931,0.0975 1.48935,0.19307 2.25314,0.24228 l -2.22894,34.30636 4.53059,4.53059 4.53058,-4.53059 -2.25319,-34.30636 c 0.76375,-0.0496 1.50355,-0.14466 2.25319,-0.24228 l 4.14293,31.32637 3.68261,-3.7068 -5.54815,-27.98299 c 4.57799,-0.90575 8.83084,-2.70221 12.57414,-5.20895 l 15.84491,23.7189 5.23319,0 -19.23677,-25.05141 c 0.60316,-0.4637 1.19752,-0.95235 1.76861,-1.45367 l 22.67707,25.85093 6.39613,0 0,-6.39612 -25.85095,-22.67708 c 0.50185,-0.57177 0.98957,-1.16473 1.45367,-1.76861 l 25.05141,19.23677 0,-5.23317 -23.7189,-15.86912 c 2.50606,-3.74261 4.30337,-7.97303 5.20894,-12.54992 l 27.983,5.54813 3.70681,-3.68261 -31.32635,-4.14293 c 0.0975,-0.74978 0.19304,-1.48958 0.24227,-2.25319 l 34.30635,2.25319 4.53059,-4.53058 -4.53059,-4.53057 -34.30635,2.22895 c -0.0489,-0.7638 -0.14467,-1.50354 -0.24227,-2.25318 l 31.32635,-4.14293 -3.70681,-3.68261 -27.983,5.57236 c -0.90572,-4.57794 -2.70213,-8.85506 -5.20894,-12.59836 l 23.7189,-15.84491 0,-5.23318 -25.05141,19.23678 c -0.4637,-0.60313 -0.95235,-1.19755 -1.45367,-1.76863 l 25.85095,-22.67709 0,-6.39611 -6.39613,0 -22.67707,25.85092 c -0.57179,-0.50185 -1.16467,-0.98954 -1.76861,-1.45365 l 19.23675,-25.05141 -5.23317,0 -15.86912,23.71888 c -3.74261,-2.50603 -7.97303,-4.3033 -12.54993,-5.20894 l 5.54814,-27.98295 -3.68262,-3.68261 -4.14292,31.30215 c -0.74978,-0.0975 -1.48959,-0.16883 -2.25319,-0.21806 l 2.25319,-34.30639 -4.53057,-4.53055 z"
     style="fill:#fcd116;fill-opacity:1;stroke-width:1;stroke-miterlimit:4;stroke-dasharray:none" /><path
     id="path4666"
     d="m 784.78693,439.07813 -270.09635,68.26563 0,370.85677 c 99.57602,-1.30141 198.30076,-42.72164 269.875,-122.80729 l 0.22135,0 0,-0.22135 0,-316.09376 z"
     style="color:#000000;fill:#ce1126;fill-opacity:1;stroke:none;stroke-width:0.09999997;marker:none;visibility:visible;display:inline;overflow:visible;enable-background:accumulate"
     inkscape:connector-curvature="0" /><path
     id="path14642-9"
     d="m 235.43017,439.07813 -1.01823,314.98698 0.22135,0 -0.22135,0.17708 c 9.54294,10.76909 19.67743,20.96743 30.41406,30.54687 69.27319,61.80711 155.42279,92.59479 241.4974,93.41147 l 0,-370.85677 -270.89322,-68.26563 z"
     style="color:#000000;fill:#0038a8;fill-opacity:1;stroke:none;stroke-width:0.09999997;marker:none;visibility:visible;display:inline;overflow:visible;enable-background:accumulate"
     inkscape:connector-curvature="0" /><path
     sodipodi:nodetypes="cccccccaccccccccccacccccccccccccccccccccccccccccccccccacccccccacccccccccacccccccccccccccccccccccccccccccccccccc"
     inkscape:connector-curvature="0"
     id="rect3818"
     d="m 260.62028,661.76043 0,25.27864 -26.07711,26.42976 5.80107,6.19785 20.27604,-20.32032 0,81.63037 0.13231,5.28468 c 0,0 10.94835,9.20942 16.75816,13.37029 6.41954,4.59754 19.94844,12.7746 19.94844,12.7746 l -0.13798,-10.2188 0,-102.7526 14.03384,14.03386 6.19792,6.19792 6.15366,-6.19792 14.12239,-14.1224 0,102.84114 0,33.43961 0,0 c 0,0 11.04553,10.69505 17.94557,13.6989 5.81507,2.53152 18.75494,3.20381 18.75494,3.20381 l 0,-2.08711 0,-48.25521 0,-102.7526 14.03387,14.03386 6.1979,6.19792 6.15366,-6.19792 14.12239,-14.1224 0,102.84114 0,48.25521 0,15.41794 18.37002,9.30096 18.33049,-1.5305 0,-23.1884 0,-48.25521 0,-102.7526 14.03386,14.03386 6.19791,6.19792 6.15365,-6.19792 14.12241,-14.1224 0,102.84114 0,48.25521 -1e-5,27.35674 14.60688,2.25311 6.64948,3.03646 15.44416,-5.34918 0,-27.29713 0,-48.25521 0,-102.7526 14.03385,14.03386 6.19792,6.19792 6.15365,-6.19792 14.12239,-14.1224 c 0,50.36545 0,100.73091 0,151.09635 l 2e-5,22.96593 c 0,0 12.85613,3.73995 19.16064,2.43458 6.60362,-1.36731 17.40703,-10.30979 17.40703,-10.30979 0.19715,-55.73828 0.13275,-109.01512 0.13275,-166.09853 l 14.03385,14.03386 6.19792,6.19792 6.15364,-6.19792 14.1224,-14.1224 c 5.8e-4,50.09122 -6e-4,105.70904 3e-5,152.67545 0,0 13.43636,0.6974 19.40017,-1.88024 7.03681,-3.04142 17.30033,-15.15258 17.30033,-15.15258 l 0,0 c -2e-5,-45.18469 -10e-6,-90.36939 -10e-6,-135.55409 l 14.03386,14.03386 6.19791,6.19792 6.15364,-6.19792 14.12241,-14.1224 0,102.84114 1e-5,7.67939 c 0,0 15.33436,-4.32294 21.41473,-9.14811 6.74772,-5.35476 15.28578,-20.83727 15.28578,-20.83727 l 0,0 -10e-6,-80.44661 18.84436,19.84819 5.37146,-6.65621 -24.21615,-25.54354 0,-25.32291 -36.70051,0 0,25.27864 -20.27605,20.27604 -20.23177,-20.23177 0,-25.32291 -36.70052,0 0,25.27864 -20.27604,20.27604 -20.23177,-20.23177 0,-25.32291 -36.70052,0 0,25.27864 -20.27604,20.27604 -20.23177,-20.23177 0,-25.32291 -36.70051,0 0,25.27864 -20.27605,20.27604 -20.23177,-20.23177 0,-25.32291 -36.70052,0 0,25.27864 -20.27604,20.27604 -20.23177,-20.23177 0,-25.32291 -36.70052,0 0,25.27864 -20.27604,20.27604 -20.23177,-20.23177 0,-25.32291 z"
     style="color:#000000;fill:#ffffff;stroke:none;stroke-width:0.1;marker:none;visibility:visible;display:inline;overflow:visible;enable-background:accumulate" /><path
     transform="matrix(1.9855658,0,0,1.489168,-124.40148,-38.49374)"
     d="m 213.40831,452.93896 a 10.300649,13.734199 0 1 1 -20.60129,0 10.300649,13.734199 0 1 1 20.60129,0 z"
     sodipodi:ry="13.734199"
     sodipodi:rx="10.300649"
     sodipodi:cy="452.93896"
     sodipodi:cx="203.10767"
     id="path4328"
     style="color:#000000;fill:#ffffff;stroke:none;stroke-width:0.08238604;marker:none;visibility:visible;display:inline;overflow:visible;enable-background:accumulate"
     sodipodi:type="arc" /><path
     transform="matrix(1.9855658,0,0,1.489168,-47.193322,-38.49374)"
     d="m 213.40831,452.93896 a 10.300649,13.734199 0 1 1 -20.60129,0 10.300649,13.734199 0 1 1 20.60129,0 z"
     sodipodi:ry="13.734199"
     sodipodi:rx="10.300649"
     sodipodi:cy="452.93896"
     sodipodi:cx="203.10767"
     id="path4328-6"
     style="color:#000000;fill:#ffffff;stroke:none;stroke-width:0.08238604;marker:none;visibility:visible;display:inline;overflow:visible;enable-background:accumulate"
     sodipodi:type="arc" /><path
     transform="matrix(1.9855658,0,0,1.489168,30.015004,-38.49374)"
     d="m 213.40831,452.93896 a 10.300649,13.734199 0 1 1 -20.60129,0 10.300649,13.734199 0 1 1 20.60129,0 z"
     sodipodi:ry="13.734199"
     sodipodi:rx="10.300649"
     sodipodi:cy="452.93896"
     sodipodi:cx="203.10767"
     id="path4328-63"
     style="color:#000000;fill:#ffffff;stroke:none;stroke-width:0.08238604;marker:none;visibility:visible;display:inline;overflow:visible;enable-background:accumulate"
     sodipodi:type="arc" /><path
     transform="matrix(1.9855658,0,0,1.489168,107.22333,-38.49374)"
     d="m 213.40831,452.93896 a 10.300649,13.734199 0 1 1 -20.60129,0 10.300649,13.734199 0 1 1 20.60129,0 z"
     sodipodi:ry="13.734199"
     sodipodi:rx="10.300649"
     sodipodi:cy="452.93896"
     sodipodi:cx="203.10767"
     id="path4328-5"
     style="color:#000000;fill:#ffffff;stroke:none;stroke-width:0.08238604;marker:none;visibility:visible;display:inline;overflow:visible;enable-background:accumulate"
     sodipodi:type="arc" /><path
     transform="matrix(1.9855658,0,0,1.489168,184.43168,-38.49374)"
     d="m 213.40831,452.93896 a 10.300649,13.734199 0 1 1 -20.60129,0 10.300649,13.734199 0 1 1 20.60129,0 z"
     sodipodi:ry="13.734199"
     sodipodi:rx="10.300649"
     sodipodi:cy="452.93896"
     sodipodi:cx="203.10767"
     id="path4328-4"
     style="color:#000000;fill:#ffffff;stroke:none;stroke-width:0.08238604;marker:none;visibility:visible;display:inline;overflow:visible;enable-background:accumulate"
     sodipodi:type="arc" /><path
     transform="matrix(1.9855658,0,0,1.489168,261.63999,-38.49374)"
     d="m 213.40831,452.93896 a 10.300649,13.734199 0 1 1 -20.60129,0 10.300649,13.734199 0 1 1 20.60129,0 z"
     sodipodi:ry="13.734199"
     sodipodi:rx="10.300649"
     sodipodi:cy="452.93896"
     sodipodi:cx="203.10767"
     id="path4328-9"
     style="color:#000000;fill:#ffffff;stroke:none;stroke-width:0.08238604;marker:none;visibility:visible;display:inline;overflow:visible;enable-background:accumulate"
     sodipodi:type="arc" /><path
     transform="matrix(1.9855658,0,0,1.489168,338.84834,-38.49374)"
     d="m 213.40831,452.93896 a 10.300649,13.734199 0 1 1 -20.60129,0 10.300649,13.734199 0 1 1 20.60129,0 z"
     sodipodi:ry="13.734199"
     sodipodi:rx="10.300649"
     sodipodi:cy="452.93896"
     sodipodi:cx="203.10767"
     id="path4328-7"
     style="color:#000000;fill:#ffffff;stroke:none;stroke-width:0.08238604;marker:none;visibility:visible;display:inline;overflow:visible;enable-background:accumulate"
     sodipodi:type="arc" /><path
     id="path14642"
     d="m 235.43017,439.07813 -1.01823,314.98698 0.22135,0 -0.22135,0.17708 c 9.54294,10.76909 19.67743,20.96743 30.41406,30.54687 69.27319,61.80711 155.42279,92.59479 241.4974,93.41147 l 0,-370.85677 -270.89322,-68.26563 z"
     style="color:#000000;fill:none;stroke:none;stroke-width:0.09999997;marker:none;visibility:visible;display:inline;overflow:visible;enable-background:accumulate"
     inkscape:connector-curvature="0" /><use
     id="use14563"
     transform="matrix(31.191673,0,0,31.191673,510.41792,268.87216)"
     xlink:href="#s"
     x="0"
     y="0"
     width="1"
     height="1" /><use
     id="use14563-8"
     transform="matrix(31.191673,0,0,31.191673,354.33411,397.6411)"
     xlink:href="#s"
     x="0"
     y="0"
     width="1"
     height="1" /><use
     id="use14563-2"
     transform="matrix(31.191673,0,0,31.191673,665.64985,397.6411)"
     xlink:href="#s"
     x="0"
     y="0"
     width="1"
     height="1" /><path
     sodipodi:nodetypes="ccccccc"
     inkscape:connector-curvature="0"
     id="rect14763"
     d="m 510.66195,152.55729 -349.03127,242.60418 0.22137,64.01562 348.63282,-243.88802 347.79165,242.38281 -0.22135,-62.51041 z"
     style="color:#000000;fill:#0038a8;fill-opacity:1;stroke:#000000;stroke-width:0.10000002;stroke-linecap:round;stroke-linejoin:round;stroke-miterlimit:4;stroke-opacity:1;stroke-dasharray:none;stroke-dashoffset:0;marker:none;visibility:visible;display:inline;overflow:visible;enable-background:accumulate" /><path
     inkscape:connector-curvature="0"
     id="path14771"
     d="m 855.1721,396.79398 c 0.26457,0 5.75455,-3.24107 5.75455,-3.24107"
     style="fill:none;stroke:#000000;stroke-width:0.1;stroke-linecap:butt;stroke-linejoin:miter;stroke-miterlimit:4;stroke-opacity:1;stroke-dasharray:none" /><path
     inkscape:connector-curvature="0"
     id="path14771-4"
     d="m 164.50764,396.79398 c -0.26457,0 -5.75456,-3.24107 -5.75456,-3.24107"
     style="fill:none;stroke:#000000;stroke-width:0.1;stroke-linecap:butt;stroke-linejoin:miter;stroke-miterlimit:4;stroke-opacity:1;stroke-dasharray:none" /><path
     sodipodi:open="true"
     sodipodi:end="7.4904741"
     sodipodi:start="1.9290353"
     transform="matrix(2.9898174,0,0,1.5757156,-1042.2977,-21.10432)"
     d="m 468.11736,595.91406 a 145.67317,276.40549 0 1 1 102.87152,-0.51419"
     sodipodi:ry="276.40549"
     sodipodi:rx="145.67317"
     sodipodi:cy="337.05597"
     sodipodi:cx="519.19409"
     id="path14810"
     style="color:#000000;fill:none;stroke:none;stroke-width:0.06526893;marker:none;visibility:visible;display:inline;overflow:visible;enable-background:accumulate"
     sodipodi:type="arc" /><g
     transform="matrix(1.4166667,0,0,1.4166667,-7.0854559,-7.08333)"
     id="text14812"
     style="font-size:48px;font-style:normal;font-variant:normal;font-weight:bold;font-stretch:normal;text-align:center;line-height:0%;letter-spacing:0px;word-spacing:6px;writing-mode:lr-tb;text-anchor:middle;fill:#ffffff;fill-opacity:1;stroke:none;font-family:Linux Libertine G;-inkscape-font-specification:Swis721 BT Bold"><path
       id="path14890"
       style="font-size:45px;letter-spacing:1px;fill:#ffffff;font-family:Swis721 BT;-inkscape-font-specification:Swis721 BT Bold"
       d="m 210.26391,637.53081 -4.59064,-2.72667 c -2.65739,-1.5784 -4.99448,-2.02522 -7.01127,-1.34046 -2.01674,0.68476 -3.95272,2.58884 -5.80793,5.71224 -1.84767,3.1108 -2.65124,5.72582 -2.41071,7.84506 0.24058,2.11923 1.53843,3.87828 3.89355,5.27716 l 5.28963,3.14184 z m 8.59553,-1.69256 -16.52832,27.82723 -10.90041,-6.47444 c -4.26946,-2.53593 -6.7682,-5.57902 -7.49626,-9.12929 -0.72797,-3.55029 0.29941,-7.66798 3.08214,-12.35307 1.51111,-2.54406 3.22993,-4.55582 5.15646,-6.03531 1.92658,-1.47946 3.97822,-2.37352 6.15491,-2.68217 1.63196,-0.22331 3.26729,-0.10812 4.906,0.34557 1.63874,0.45371 3.73013,1.43609 6.27418,2.94716 z"
       inkscape:connector-curvature="0" /><path
       id="path14892"
       style="font-size:45px;letter-spacing:1px;fill:#ffffff;font-family:Swis721 BT;-inkscape-font-specification:Swis721 BT Bold"
       d="m 190.13561,618.20869 -19.34893,25.9453 -18.82928,-14.04209 3.36275,-4.50917 13.56271,10.11452 4.12462,-5.53077 -12.4002,-9.24756 3.31021,-4.43871 12.4002,9.24756 4.97844,-6.67568 -14.19682,-10.5874 3.57292,-4.79098 z"
       inkscape:connector-curvature="0" /><path
       id="path14894"
       style="font-size:45px;letter-spacing:1px;fill:#ffffff;font-family:Swis721 BT;-inkscape-font-specification:Swis721 BT Bold"
       d="m 149.33686,608.05311 -4.74812,-4.34776 c -1.28559,-1.17721 -2.46988,-1.76012 -3.55286,-1.74874 -1.08293,0.0114 -2.17839,0.62206 -3.28638,1.83205 -1.03869,1.13436 -1.53885,2.25539 -1.50049,3.36308 0.0384,1.10769 0.62479,2.18089 1.75913,3.21961 l 5.00741,4.58518 z m 3.99436,-4.29711 7.77552,-8.49153 4.91017,4.49615 -21.8575,23.87027 -10.61441,-9.7194 c -2.50637,-2.29507 -3.80905,-4.68459 -3.90806,-7.16855 -0.0989,-2.48398 1.00407,-4.98456 3.30898,-7.50177 2.25553,-2.46319 4.62614,-3.78319 7.11184,-3.96 2.48576,-0.17679 4.9008,0.80814 7.24513,2.95481 z"
       inkscape:connector-curvature="0" /><path
       id="path14896"
       style="font-size:45px;letter-spacing:1px;fill:#ffffff;font-family:Swis721 BT;-inkscape-font-specification:Swis721 BT Bold"
       d="m 116.01308,586.69744 13.27526,-5.80183 -5.97011,-6.71719 z m -2.27587,7.1966 -5.1089,-5.74821 16.44082,-30.222 4.6418,5.22266 -3.51662,6.06518 8.33479,9.3778 6.3922,-2.82977 4.6564,5.23908 z"
       inkscape:connector-curvature="0" /><path
       id="path14898"
       style="font-size:45px;letter-spacing:1px;fill:#ffffff;font-family:Swis721 BT;-inkscape-font-specification:Swis721 BT Bold"
       d="m 103.78403,559.62001 -4.550079,-6.36275 c -0.988382,-1.38217 -1.994784,-2.1977 -3.019209,-2.44662 -1.024369,-0.2489 -2.138288,0.0569 -3.34176,0.91754 -1.143832,0.818 -1.784867,1.75363 -1.923106,2.80692 -0.138172,1.05328 0.240065,2.20548 1.134711,3.45658 l 4.729019,6.61297 z m 18.68931,-5.18007 -26.326766,18.8266 -9.125728,-12.76124 c -2.053463,-2.87158 -2.960781,-5.43727 -2.721956,-7.69708 0.238904,-2.2598 1.621352,-4.2929 4.147349,-6.09931 1.608595,-1.15029 3.189772,-1.77227 4.743535,-1.86594 1.553826,-0.0936 2.978925,0.35045 4.2753,1.33227 -0.412846,-1.43356 -0.374794,-2.68986 0.114156,-3.76889 0.489004,-1.07901 1.589659,-2.2848 3.30197,-3.61738 l 3.03319,-2.33115 c 0.0239,-0.017 0.0596,-0.0426 0.10724,-0.0767 1.54727,-1.16046 2.25765,-2.18171 2.13114,-3.06373 l 0.80428,-0.57516 4.24334,5.93381 c -0.23303,0.4548 -0.58441,0.92668 -1.05414,1.41564 -0.46971,0.48899 -1.07137,1.01379 -1.80501,1.57442 l -2.71917,2.05256 c -1.58977,1.22693 -2.47252,2.32192 -2.64826,3.28497 -0.1757,0.96306 0.25195,2.16546 1.28294,3.6072 l 4.10274,5.7372 10.24117,-7.32359 z"
       inkscape:connector-curvature="0" /><path
       id="path14900"
       style="font-size:45px;letter-spacing:1px;fill:#ffffff;font-family:Swis721 BT;-inkscape-font-specification:Swis721 BT Bold"
       d="m 100.25704,521.35292 -23.044533,13.25948 4.788752,8.32269 -5.008852,2.88202 -12.864978,-22.35891 5.008853,-2.88202 4.755877,8.26556 23.04453,-13.25947 z"
       inkscape:connector-curvature="0" /><path
       id="path14902"
       style="font-size:45px;letter-spacing:1px;fill:#ffffff;font-family:Swis721 BT;-inkscape-font-specification:Swis721 BT Bold"
       d="m 89.828761,503.07074 -29.655259,12.96556 -3.943359,-9.01939 19.989571,-15.76604 -25.112418,4.04889 -3.960963,-9.05965 29.655259,-12.96556 2.499808,5.71765 -23.91748,10.45694 26.549321,-4.4373 2.728663,6.24109 -21.250431,16.55711 23.91748,-10.45695 z"
       inkscape:connector-curvature="0" /><path
       id="path14904"
       style="font-size:45px;letter-spacing:1px;fill:#ffffff;font-family:Swis721 BT;-inkscape-font-specification:Swis721 BT Bold"
       d="m 74.352795,465.87073 -30.940219,9.49963 -6.89416,-22.45424 5.377255,-1.65099 4.965859,16.17377 6.595539,-2.02504 -4.540214,-14.78745 5.293235,-1.62519 4.540214,14.78745 7.960857,-2.44423 -5.198029,-16.92995 5.713333,-1.75417 z"
       inkscape:connector-curvature="0" /><path
       id="path14906"
       style="font-size:45px;letter-spacing:1px;fill:#ffffff;font-family:Swis721 BT;-inkscape-font-specification:Swis721 BT Bold"
       d="m 65.722562,436.75153 -31.765948,6.20197 -1.33471,-6.83625 19.306421,-17.15712 -21.824263,4.26096 -1.258922,-6.44808 31.765949,-6.20197 1.317867,6.74999 -19.289579,17.24338 21.824264,-4.26096 z"
       inkscape:connector-curvature="0" /><path
       id="path14908"
       style="font-size:45px;letter-spacing:1px;fill:#ffffff;font-family:Swis721 BT;-inkscape-font-specification:Swis721 BT Bold"
       d="m 59.064549,396.21191 -26.47549,2.43155 0.87817,9.56181 -5.75459,0.52851 -2.359203,-25.68779 5.75459,-0.52851 0.872142,9.49617 26.47549,-2.43155 z"
       inkscape:connector-curvature="0" /><path
       id="path14910"
       style="font-size:45px;letter-spacing:1px;fill:#ffffff;font-family:Swis721 BT;-inkscape-font-specification:Swis721 BT Bold"
       d="m 41.610731,348.76265 c 3.548615,0.27921 6.367031,-0.29251 8.455255,-1.71514 2.088237,-1.42261 3.243801,-3.55044 3.466696,-6.38349 0.225199,-2.86223 -0.581656,-5.1665 -2.420568,-6.91282 -1.838901,-1.74627 -4.532654,-2.75902 -8.081269,-3.03824 -3.548586,-0.27917 -6.367576,0.29984 -8.456978,1.73704 -2.089357,1.43725 -3.246645,3.58699 -3.471867,6.44921 -0.222872,2.83306 0.582056,5.11514 2.414786,6.84624 1.832778,1.73113 4.530756,2.73686 8.093945,3.0172 z m -0.532543,6.76863 c -5.21336,-0.41017 -9.238007,-2.15579 -12.073952,-5.23684 -2.83589,-3.08104 -4.06427,-7.03111 -3.685146,-11.85022 0.379188,-4.81906 2.214423,-8.53544 5.50571,-11.14913 3.29134,-2.61363 7.536382,-3.71595 12.735141,-3.30695 5.198786,0.40906 9.219208,2.16169 12.061277,5.25788 2.842071,3.09626 4.073528,7.05391 3.694374,11.87298 -0.379159,4.81911 -2.213819,8.52818 -5.503986,11.12723 -3.290161,2.59907 -7.53463,3.69408 -12.733418,3.28505 z"
       inkscape:connector-curvature="0" /><path
       id="path14912"
       style="font-size:45px;letter-spacing:1px;fill:#ffffff;font-family:Swis721 BT;-inkscape-font-specification:Swis721 BT Bold"
       d="m 60.783545,319.05403 -31.819947,-5.9187 4.130631,-22.20699 5.530147,1.02864 -2.929212,15.74796 7.215113,1.34205 2.567581,-13.80377 5.530147,1.02864 -2.567581,13.80377 13.54454,2.51936 z"
       inkscape:connector-curvature="0" /><path
       id="path14914"
       style="font-size:45px;letter-spacing:1px;fill:#ffffff;font-family:Swis721 BT;-inkscape-font-specification:Swis721 BT Bold"
       d="m 71.483555,272.5507 -30.416152,-11.06336 2.290783,-6.29798 11.336366,4.12341 4.566543,-12.55466 -11.336366,-4.12341 2.290782,-6.29798 30.416151,11.06335 -2.290782,6.29798 -13.483874,-4.90453 -4.566543,12.55467 13.483874,4.90452 z"
       inkscape:connector-curvature="0" /><path
       id="path14916"
       style="font-size:45px;letter-spacing:1px;fill:#ffffff;font-family:Swis721 BT;-inkscape-font-specification:Swis721 BT Bold"
       d="m 54.494594,226.1206 2.971291,-6.03147 18.212684,8.97213 c 2.247024,1.10697 4.106391,1.46775 5.578106,1.08235 1.471717,-0.38538 2.686606,-1.55047 3.644671,-3.49527 0.971007,-1.97105 1.165747,-3.65911 0.584223,-5.06418 -0.581531,-1.40502 -2.002374,-2.66426 -4.262533,-3.7777 l -18.212684,-8.97214 2.94216,-5.97234 18.863137,9.29257 c 3.56106,1.75432 5.803915,4.09617 6.72857,7.02557 0.924637,2.92944 0.464502,6.26667 -1.380407,10.01168 -1.857872,3.77133 -4.229798,6.19124 -7.115785,7.25975 -2.885988,1.06852 -6.116084,0.72239 -9.690295,-1.03838 z"
       inkscape:connector-curvature="0" /><path
       id="path14918"
       style="font-size:45px;letter-spacing:1px;fill:#ffffff;font-family:Swis721 BT;-inkscape-font-specification:Swis721 BT Bold"
       d="m 98.624758,210.53521 -27.115938,-17.67104 5.374494,-8.24708 24.151106,8.0545 -17.169063,-18.76833 5.398487,-8.28389 27.115936,17.67105 -3.40704,5.22805 -21.869476,-14.252 18.282476,19.75619 -3.71896,5.70668 -25.50445,-8.67419 21.86947,14.25201 z"
       inkscape:connector-curvature="0" /><path
       id="path14920"
       style="font-size:45px;letter-spacing:1px;fill:#ffffff;font-family:Swis721 BT;-inkscape-font-specification:Swis721 BT Bold"
       d="m 109.05957,151.33352 7.70189,12.27089 5.76009,-6.89813 z m -7.4541,-1.18619 4.92917,-5.90305 32.32166,11.78898 -4.4785,5.36335 -6.51869,-2.58067 -8.04158,9.63041 3.74427,5.90324 -4.49259,5.38021 z"
       inkscape:connector-curvature="0" /><path
       id="path14922"
       style="font-size:45px;letter-spacing:1px;fill:#ffffff;font-family:Swis721 BT;-inkscape-font-specification:Swis721 BT Bold"
       d="m 141.90097,152.93267 -22.45294,-23.31106 5.0167,-4.83203 24.88961,6.90016 -15.42592,-16.01548 4.73185,-4.55766 22.45294,23.31106 -4.9534,4.77106 -24.95291,-6.83918 15.42591,16.01547 z"
       inkscape:connector-curvature="0" /><path
       id="path14924"
       style="font-size:45px;letter-spacing:1px;fill:#ffffff;font-family:Swis721 BT;-inkscape-font-specification:Swis721 BT Bold"
       d="m 175.78832,109.73485 5.43876,-3.68544 c 1.20043,1.32763 2.5382,2.00923 4.01329,2.04481 1.47508,0.0356 3.15243,-0.58344 5.03205,-1.85713 1.6007,-1.08467 2.61418,-2.18726 3.04046,-3.30778 0.42626,-1.12048 0.2614,-2.23856 -0.49458,-3.354217 -1.10112,-1.624937 -4.3476,-1.389162 -9.73943,0.707327 l -0.18836,0.0746 c -0.13771,0.0579 -0.35443,0.14287 -0.65017,0.25478 -2.86785,1.14708 -5.06542,1.74262 -6.59272,1.78664 -1.35673,0.0346 -2.63087,-0.29195 -3.82243,-0.97975 -1.19154,-0.68777 -2.2598,-1.728941 -3.2048,-3.123514 -1.76669,-2.607186 -2.23525,-5.204893 -1.40566,-7.79313 0.82961,-2.588179 2.91787,-5.016265 6.26479,-7.284263 3.12865,-2.120016 6.07644,-3.038128 8.84336,-2.754339 2.76691,0.283866 5.11099,1.738957 7.03224,4.365277 l -5.29324,3.586836 c -0.97626,-1.231772 -2.14315,-1.883177 -3.50068,-1.954219 -1.35754,-0.07098 -2.86697,0.4564 -4.52831,1.582133 -1.44305,0.977884 -2.36461,2.013759 -2.76468,3.107628 -0.40005,1.093925 -0.24674,2.162315 0.45994,3.205173 0.96142,1.41883 3.20231,1.448637 6.72268,0.08942 0.95608,-0.364724 1.7015,-0.648657 2.23627,-0.851799 2.28927,-0.825764 3.93768,-1.376536 4.94523,-1.652317 1.00753,-0.275728 1.92951,-0.449264 2.76593,-0.520612 1.50224,-0.133198 2.86517,0.115521 4.0888,0.746157 1.22361,0.63069 2.30791,1.643298 3.25291,3.037827 1.88995,2.789128 2.41487,5.587522 1.57476,8.395192 -0.84015,2.80769 -2.97006,5.37017 -6.38973,7.68743 -3.37119,2.2844 -6.54479,3.2936 -9.52081,3.0276 -2.97602,-0.26599 -5.51464,-1.79275 -7.61587,-4.58027 z"
       inkscape:connector-curvature="0" /><path
       id="path14926"
       style="font-size:45px;letter-spacing:1px;fill:#ffffff;font-family:Swis721 BT;-inkscape-font-specification:Swis721 BT Bold"
       d="m 208.57447,100.07919 -15.40617,-28.463839 20.65706,-11.180717 2.67751,4.946871 -14.87926,8.053463 3.28414,6.067648 13.6039,-7.363167 2.63567,4.869577 -13.60389,7.363166 3.96397,7.323689 15.57492,-8.429988 2.84486,5.256051 z"
       inkscape:connector-curvature="0" /><path
       id="path14928"
       style="font-size:45px;letter-spacing:1px;fill:#ffffff;font-family:Swis721 BT;-inkscape-font-specification:Swis721 BT Bold"
       d="m 241.63991,83.37769 -10.4078,-24.465111 -8.83575,3.758851 -2.26219,-5.317623 23.73722,-10.098149 2.26219,5.317623 -8.77509,3.733047 10.40781,24.465111 z"
       inkscape:connector-curvature="0" /><path
       id="path14930"
       style="font-size:45px;letter-spacing:1px;fill:#ffffff;font-family:Swis721 BT;-inkscape-font-specification:Swis721 BT Bold"
       d="m 267.49434,73.405074 -8.17522,-25.298812 -9.13684,2.952535 -1.77693,-5.498832 24.54612,-7.931984 1.77693,5.498833 -9.07412,2.932266 8.17521,25.298812 z"
       inkscape:connector-curvature="0" /><path
       id="path14932"
       style="font-size:45px;letter-spacing:1px;fill:#ffffff;font-family:Swis721 BT;-inkscape-font-specification:Swis721 BT Bold"
       d="m 287.6043,67.279007 -7.17907,-31.559482 6.49187,-1.476754 5.85341,25.731798 15.40479,-3.504245 1.32567,5.827685 z"
       inkscape:connector-curvature="0" /><path
       id="path14934"
       style="font-size:45px;letter-spacing:1px;fill:#ffffff;font-family:Swis721 BT;-inkscape-font-specification:Swis721 BT Bold"
       d="m 314.10285,61.540651 -4.201,-32.091924 23.29007,-3.048789 0.73011,5.577416 -16.77582,2.19604 0.89553,6.841048 15.33789,-2.007808 0.71871,5.490268 -15.3379,2.007809 1.08091,8.257189 17.56015,-2.298713 0.77574,5.926004 z"
       inkscape:connector-curvature="0" /><path
       id="path14936"
       style="font-size:45px;letter-spacing:1px;fill:#ffffff;font-family:Swis721 BT;-inkscape-font-specification:Swis721 BT Bold"
       d="m 344.25184,57.751837 -0.47568,-32.362227 9.84269,-0.144673 6.79929,24.534068 5.98741,-24.722014 9.88663,-0.145319 0.47568,32.362227 -6.23956,0.09171 -0.38365,-26.100696 -6.18547,26.197253 -6.81079,0.100108 -7.04064,-26.002848 0.38365,26.100696 z"
       inkscape:connector-curvature="0" /><path
       id="path14938"
       style="font-size:45px;letter-spacing:1px;fill:#ffffff;font-family:Swis721 BT;-inkscape-font-specification:Swis721 BT Bold"
       d="m 384.54253,57.891869 3.26515,-32.200603 23.36894,2.369617 -0.56747,5.596303 -16.83263,-1.706834 -0.69603,6.864216 15.38983,1.560533 -0.5586,5.508861 -15.38983,-1.560533 -0.84012,8.285151 17.61961,1.786633 -0.60293,5.946072 z"
       inkscape:connector-curvature="0" /><path
       id="path14940"
       style="font-size:45px;letter-spacing:1px;fill:#ffffff;font-family:Swis721 BT;-inkscape-font-specification:Swis721 BT Bold"
       d="m 414.72675,61.257047 6.64838,-31.675527 6.8168,1.430779 8.29179,24.461212 4.56766,-21.76214 6.42972,1.349535 -6.64838,31.675527 -6.73078,-1.412724 -8.3778,-24.479267 -4.56766,21.762141 z"
       inkscape:connector-curvature="0" /><path
       id="path14942"
       style="font-size:45px;letter-spacing:1px;fill:#ffffff;font-family:Swis721 BT;-inkscape-font-specification:Swis721 BT Bold"
       d="m 454.6622,70.898698 8.04696,-25.339897 -9.15168,-2.906217 1.74905,-5.507763 24.58598,7.807548 -1.74905,5.507762 -9.08886,-2.886265 -8.04696,25.339898 z"
       inkscape:connector-curvature="0" /><path
       id="path14944"
       style="font-size:45px;letter-spacing:1px;fill:#ffffff;font-family:Swis721 BT;-inkscape-font-specification:Swis721 BT Bold"
       d="m 477.14879,67.746824 6.04704,2.568249 c -0.46369,1.728771 -0.31023,3.222304 0.46039,4.480603 0.77058,1.258302 2.2008,2.33124 4.29065,3.218819 1.77971,0.75587 3.25582,1.008792 4.42832,0.758765 1.17247,-0.250032 2.02212,-0.995255 2.54896,-2.235671 0.7673,-1.806695 -1.19252,-4.405599 -5.87946,-7.796719 l -0.16484,-0.117753 c -0.12339,-0.08422 -0.31233,-0.220169 -0.56682,-0.407843 -2.51979,-1.786336 -4.21259,-3.308984 -5.07839,-4.567947 -0.76535,-1.120779 -1.18248,-2.368212 -1.2514,-3.742303 -0.0689,-1.374058 0.22587,-2.836356 0.88441,-4.386898 1.23114,-2.89878 3.1588,-4.702051 5.78296,-5.409817 2.62414,-0.707713 5.79684,-0.271353 9.51811,1.309081 3.47854,1.477411 5.84939,3.455143 7.11256,5.933202 1.2631,2.478097 1.31298,5.236632 0.14964,8.275612 l -5.88525,-2.499534 c 0.50483,-1.488456 0.41873,-2.822082 -0.2583,-4.000882 -0.67708,-1.178766 -1.93918,-2.160409 -3.7863,-2.944933 -1.60447,-0.68141 -2.97466,-0.893323 -4.11055,-0.63574 -1.13593,0.257624 -1.95012,0.966186 -2.44257,2.125687 -0.66999,1.577506 0.52105,3.475901 3.57313,5.695193 0.82518,0.605126 1.46819,1.077155 1.92903,1.416088 1.93592,1.474741 3.29309,2.56042 4.0715,3.257042 0.77836,0.696638 1.42445,1.376869 1.93828,2.040696 0.92711,1.189514 1.45783,2.469274 1.59217,3.839286 0.13428,1.370016 -0.12783,2.830284 -0.78633,4.380808 -1.31708,3.10104 -3.38271,5.06056 -6.1969,5.878565 -2.81423,0.817988 -6.12241,0.419578 -9.92454,-1.195233 -3.74823,-1.591919 -6.31814,-3.709893 -7.70972,-6.353929 -1.39159,-2.644036 -1.48685,-5.604865 -0.28578,-8.882494 z"
       inkscape:connector-curvature="0" /><path
       id="path14946"
       style="font-size:45px;letter-spacing:1px;fill:#ffffff;font-family:Swis721 BT;-inkscape-font-specification:Swis721 BT Bold"
       d="m 544.59434,84.124331 -11.19098,9.200851 7.57507,4.835405 z m 0.22795,-7.544444 6.48234,4.137877 -7.57992,33.559126 -5.88967,-3.75956 1.73013,-6.7941 -10.57547,-6.750651 -5.37875,4.465071 -5.90819,-3.771383 z"
       inkscape:connector-curvature="0" /><path
       id="path14948"
       style="font-size:45px;letter-spacing:1px;fill:#ffffff;font-family:Swis721 BT;-inkscape-font-specification:Swis721 BT Bold"
       d="m 547.18872,116.9006 20.26681,-25.234824 5.43071,4.361561 -3.67929,25.564963 13.92398,-17.33716 5.12234,4.1139 -20.26681,25.23482 -5.36219,-4.30652 3.61077,-25.62 -13.92398,17.33716 z"
       inkscape:connector-curvature="0" /><path
       id="path14950"
       style="font-size:45px;letter-spacing:1px;fill:#ffffff;font-family:Swis721 BT;-inkscape-font-specification:Swis721 BT Bold"
       d="m 582.48054,139.30304 3.76516,3.7858 c 2.17954,2.1915 4.33123,3.20729 6.45509,3.04738 2.12381,-0.15993 4.47363,-1.52077 7.04946,-4.08251 2.56538,-2.55143 3.99599,-4.88326 4.29182,-6.99549 0.29577,-2.11223 -0.52215,-4.13946 -2.45377,-6.0817 l -4.33845,-4.36225 z m -8.74599,-0.50557 22.94852,-22.82336 8.94031,8.98934 c 3.50171,3.52096 5.16218,7.09125 4.98142,10.71089 -0.18085,3.61964 -2.2031,7.35078 -6.06676,11.19341 -2.09806,2.08658 -4.26446,3.60588 -6.49919,4.5579 -2.23479,0.95199 -4.44461,1.30589 -6.62946,1.0617 -1.63607,-0.19093 -3.19095,-0.7105 -4.66463,-1.55869 -1.47372,-0.84823 -3.25386,-2.32135 -5.34044,-4.41937 z"
       inkscape:connector-curvature="0" /><path
       id="path14952"
       style="font-size:45px;letter-spacing:1px;fill:#ffffff;font-family:Swis721 BT;-inkscape-font-specification:Swis721 BT Bold"
       d="m 636.2209,159.67097 3.84639,5.51475 -16.65239,11.6146 c -2.05453,1.43297 -3.26844,2.88686 -3.64175,4.36169 -0.37333,1.47482 0.0601,3.10132 1.30037,4.87951 1.25698,1.80219 2.64106,2.78798 4.15225,2.95737 1.51115,0.16936 3.3,-0.46663 5.36656,-1.90797 l 16.65238,-11.6146 3.80869,5.46068 -17.24712,12.02941 c -3.25601,2.27095 -6.38984,3.10386 -9.40152,2.49874 -3.01171,-0.60515 -5.71169,-2.61981 -8.09997,-6.04399 -2.40505,-3.44823 -3.37848,-6.69391 -2.92029,-9.73705 0.45818,-3.04315 2.32127,-5.70439 5.58928,-7.98373 z"
       inkscape:connector-curvature="0" /><path
       id="path14954"
       style="font-size:45px;letter-spacing:1px;fill:#ffffff;font-family:Swis721 BT;-inkscape-font-specification:Swis721 BT Bold"
       d="m 647.57619,203.00466 3.76006,6.85929 c 0.81676,1.49002 1.71889,2.41959 2.70639,2.78872 0.98744,0.36911 2.12986,0.19808 3.42724,-0.51308 1.2331,-0.67598 1.98098,-1.52863 2.24366,-2.55796 0.26261,-1.02934 0.0243,-2.21837 -0.71504,-3.5671 l -3.90793,-7.12904 z m -19.17316,2.91777 28.38125,-15.55777 7.54124,13.7571 c 1.69692,3.09567 2.29227,5.75114 1.78606,7.96644 -0.5063,2.21527 -2.121,4.06929 -4.84413,5.56206 -1.73412,0.95057 -3.37811,1.37984 -4.93197,1.28782 -1.55392,-0.092 -2.916,-0.70267 -4.08624,-1.83187 0.23921,1.47252 0.0518,2.71534 -0.56213,3.72848 -0.61401,1.0131 -1.85041,2.07925 -3.70922,3.19845 l -3.2892,1.95339 c -0.0257,0.0141 -0.0642,0.0352 -0.1156,0.0634 -1.67445,0.96797 -2.50138,1.89736 -2.4808,2.78817 l -0.86704,0.47529 -3.50657,-6.39686 c 0.28552,-0.42382 0.69059,-0.8505 1.2152,-1.28005 0.52459,-0.42958 1.18447,-0.87901 1.97964,-1.34828 l 2.94424,-1.71418 c 1.72456,-1.0289 2.73141,-2.01098 3.02058,-2.94624 0.28912,-0.9353 0.008,-2.18006 -0.84428,-3.73431 l -3.39039,-6.18492 -11.04037,6.05201 z"
       inkscape:connector-curvature="0" /><path
       id="path14956"
       style="font-size:45px;letter-spacing:1px;fill:#ffffff;font-family:Swis721 BT;-inkscape-font-specification:Swis721 BT Bold"
       d="m 651.82705,238.85066 3.03475,7.28105 c 0.7157,1.71715 1.54797,2.83822 2.49681,3.36322 0.94882,0.52497 2.09252,0.5085 3.43111,-0.0494 1.39264,-0.58048 2.23596,-1.38427 2.52996,-2.41137 0.29396,-1.02713 0.0718,-2.42631 -0.66642,-4.19755 l -3.01784,-7.24049 z m 12.91931,-5.38478 2.92485,7.0174 c 0.63116,1.51434 1.35355,2.51458 2.16719,3.00071 0.81358,0.48611 1.7815,0.4953 2.90377,0.0276 1.09517,-0.4565 1.74723,-1.12899 1.95618,-2.01749 0.20889,-0.88851 -0.0163,-2.12374 -0.67566,-3.70569 l -2.90794,-6.97683 z m -20.76565,1.75173 29.87463,-12.45176 5.86661,14.07535 c 1.2736,3.05574 1.5987,5.65383 0.9753,7.79427 -0.62348,2.14042 -2.16561,3.72347 -4.6264,4.74916 -1.51438,0.63116 -2.90257,0.86062 -4.16458,0.68838 -1.26207,-0.17227 -2.41823,-0.73779 -3.4685,-1.69657 0.0205,1.80062 -0.39487,3.32663 -1.246,4.57807 -0.85118,1.25138 -2.14886,2.24058 -3.89305,2.96759 -2.90703,1.21162 -5.546,1.20066 -7.91692,-0.0329 -2.37094,-1.2336 -4.28058,-3.58783 -5.7289,-7.06271 z"
       inkscape:connector-curvature="0" /><path
       id="path14958"
       style="font-size:45px;letter-spacing:1px;fill:#ffffff;font-family:Swis721 BT;-inkscape-font-specification:Swis721 BT Bold"
       d="m 684.4313,269.72184 -14.48349,-0.34966 2.57341,8.61049 z m 5.10311,-5.56138 2.20219,7.36838 -27.66934,20.44696 -2.00084,-6.6947 5.74972,-4.01172 -3.59272,-12.02099 -6.98923,-0.13563 -2.00714,-6.71576 z"
       inkscape:connector-curvature="0" /><path
       id="path14960"
       style="font-size:45px;letter-spacing:1px;fill:#ffffff;font-family:Swis721 BT;-inkscape-font-specification:Swis721 BT Bold"
       d="m 664.97824,296.22415 31.826,-5.88607 1.26672,6.84918 -19.47593,16.96446 21.86552,-4.04392 1.1948,6.46026 -31.826,5.88607 -1.25074,-6.76275 19.45994,-17.05089 -21.86552,4.04393 z"
       inkscape:connector-curvature="0" /><path
       id="path14962"
       style="font-size:45px;letter-spacing:1px;fill:#ffffff;font-family:Swis721 BT;-inkscape-font-specification:Swis721 BT Bold"
       d="m 678.31296,356.40516 0.037,5.33923 c 0.0214,3.09073 0.84621,5.32262 2.47442,6.69567 1.62819,1.373 4.25866,2.04694 7.89139,2.02179 3.61806,-0.0251 6.27222,-0.68802 7.96249,-1.9888 1.69022,-1.30083 2.52586,-3.32082 2.50691,-6.05999 l -0.0426,-6.1522 z m -5.8898,-6.48523 32.36495,-0.22422 0.0878,12.67792 c 0.0344,4.96568 -1.28028,8.67727 -3.94395,11.13477 -2.66373,2.45745 -6.72012,3.70506 -12.16919,3.74284 -2.95893,0.0205 -5.5694,-0.4119 -7.83144,-1.2971 -2.26205,-0.88525 -4.08747,-2.18001 -5.47626,-3.88427 -1.0343,-1.28195 -1.78051,-2.74166 -2.23864,-4.37913 -0.45813,-1.63751 -0.69745,-3.93571 -0.71795,-6.8946 z"
       inkscape:connector-curvature="0" /><path
       id="path14964"
       style="font-size:45px;letter-spacing:1px;fill:#ffffff;font-family:Swis721 BT;-inkscape-font-specification:Swis721 BT Bold"
       d="m 672.16554,383.62148 32.21032,3.16784 -2.299,23.37599 -5.59799,-0.55056 1.65597,-16.83771 -6.86629,-0.67529 -1.51402,15.39448 -5.51053,-0.54195 1.51403,-15.39448 -8.28765,-0.81508 -1.73339,17.62493 -5.94787,-0.58497 z"
       inkscape:connector-curvature="0" /><path
       id="path14966"
       style="font-size:45px;letter-spacing:1px;fill:#ffffff;font-family:Swis721 BT;-inkscape-font-specification:Swis721 BT Bold"
       d="m 667.31511,421.25325 33.91656,-4.66899 -1.43271,7.24247 -25.0882,2.04773 22.39333,11.57499 -1.41566,7.15624 -29.60989,-17.1015 z"
       inkscape:connector-curvature="0" /><path
       id="path14968"
       style="font-size:45px;letter-spacing:1px;fill:#ffffff;font-family:Swis721 BT;-inkscape-font-specification:Swis721 BT Bold"
       d="m 662.79831,442.30571 30.99775,9.31018 -6.75668,22.49599 -5.38725,-1.61806 4.86683,-16.20385 -6.6078,-1.98466 -4.44968,14.81495 -5.30308,-1.59278 4.44968,-14.81495 -7.97566,-2.39549 -5.09437,16.96143 -5.72396,-1.71919 z"
       inkscape:connector-curvature="0" /><path
       id="path14970"
       style="font-size:45px;letter-spacing:1px;fill:#ffffff;font-family:Swis721 BT;-inkscape-font-specification:Swis721 BT Bold"
       d="m 653.65523,471.25589 30.00511,12.13397 -2.49599,6.17213 -24.46445,-9.89335 -5.92283,14.64608 -5.54066,-2.24062 z"
       inkscape:connector-curvature="0" /><path
       id="path14972"
       style="font-size:45px;letter-spacing:1px;fill:#ffffff;font-family:Swis721 BT;-inkscape-font-specification:Swis721 BT Bold"
       d="m 655.08777,508.66742 c -3.14455,-1.66806 -5.95775,-2.26492 -8.4396,-1.79058 -2.48185,0.4743 -4.38862,1.96669 -5.72031,4.47717 -1.34541,2.53632 -1.52197,4.97138 -0.52969,7.30518 0.99229,2.33374 3.0607,4.33465 6.20525,6.00272 3.14454,1.668 5.96117,2.25839 8.4499,1.77117 2.4887,-0.4873 4.40576,-1.9991 5.75119,-4.53541 1.33167,-2.51049 1.50118,-4.92442 0.50851,-7.24179 -0.99269,-2.31743 -3.06777,-4.31358 -6.22525,-5.98846 z m 3.18163,-5.99794 c 4.61975,2.45057 7.6176,5.65336 8.99354,9.60839 1.3759,3.955 0.93124,8.06769 -1.33398,12.33809 -2.26526,4.27034 -5.42762,6.9497 -9.4871,8.03809 -4.0595,1.08832 -8.39266,0.41064 -12.99948,-2.03303 -4.60682,-2.44375 -7.598,-5.6513 -8.97353,-9.62265 -1.37552,-3.97142 -0.93066,-8.09229 1.33457,-12.36265 2.26524,-4.27038 5.42417,-6.94328 9.4768,-8.01868 4.05262,-1.07543 8.38235,-0.39128 12.98918,2.05244 z"
       inkscape:connector-curvature="0" /><path
       id="path14974"
       style="font-size:45px;letter-spacing:1px;fill:#ffffff;font-family:Swis721 BT;-inkscape-font-specification:Swis721 BT Bold"
       d="m 636.32498,543.64897 -3.62272,5.32198 c -0.98091,1.44097 -1.38816,2.69655 -1.22175,3.76673 0.16639,1.07013 0.92771,2.06681 2.28394,2.99004 1.27146,0.86547 2.45257,1.19988 3.54335,1.00324 1.09075,-0.19671 2.06888,-0.93077 2.93439,-2.20221 l 3.82056,-5.6126 z m -4.82499,-3.33759 -9.51782,-6.47887 3.74637,-5.50362 26.75524,18.21256 -8.0986,11.89727 c -1.91235,2.80929 -4.09061,4.44085 -6.53477,4.89467 -2.44418,0.45375 -5.07699,-0.27965 -7.89842,-2.2002 -2.76089,-1.8794 -4.40688,-4.03646 -4.93795,-6.4712 -0.53107,-2.43479 0.0978,-4.96602 1.88644,-7.59368 z"
       inkscape:connector-curvature="0" /><path
       id="path14976"
       style="font-size:45px;letter-spacing:1px;fill:#ffffff;font-family:Swis721 BT;-inkscape-font-specification:Swis721 BT Bold"
       d="m 608.08585,553.92673 24.46684,21.18758 -6.44401,7.44138 -22.83455,-11.25764 14.46308,20.92478 -6.47279,7.4746 -24.46684,-21.18759 4.08505,-4.7173 19.73293,17.08816 -15.43213,-22.05461 4.45903,-5.14917 24.09128,12.05526 -19.73293,-17.08815 z"
       inkscape:connector-curvature="0" /><path
       id="path14978"
       style="font-size:45px;letter-spacing:1px;fill:#ffffff;font-family:Swis721 BT;-inkscape-font-specification:Swis721 BT Bold"
       d="m 581.1652,583.90377 21.87786,23.85161 -17.30983,15.87742 -3.80226,-4.14529 12.46826,-11.43649 -4.66372,-5.08446 -11.39954,10.45622 -3.74285,-4.08052 11.39954,-10.45622 -5.62913,-6.13697 -13.05118,11.97118 -4.03991,-4.40437 z"
       inkscape:connector-curvature="0" /><path
       id="path14980"
       style="font-size:45px;letter-spacing:1px;fill:#ffffff;font-family:Swis721 BT;-inkscape-font-specification:Swis721 BT Bold"
       d="m 558.58255,604.21236 19.24986,26.01889 -5.59945,4.14271 -23.7883,-10.0609 13.2253,17.87585 -5.2815,3.90747 -19.24986,-26.01889 5.52879,-4.09043 23.85895,10.00862 -13.22529,-17.87585 z"
       inkscape:connector-curvature="0" /><path
       id="path14982"
       style="font-size:45px;letter-spacing:1px;fill:#ffffff;font-family:Swis721 BT;-inkscape-font-specification:Swis721 BT Bold"
       d="m 524.83753,627.64431 13.57568,22.85968 8.25594,-4.90295 2.95074,4.96867 -22.17955,13.17178 -2.95075,-4.96868 8.19926,-4.86929 -13.57568,-22.85968 z"
       inkscape:connector-curvature="0" /></g><path
     transform="matrix(0,-3.3058816,-1.7422891,0,1097.2467,2226.3943)"
     d="m 664.86726,337.05597 a 145.67317,276.40549 0 1 1 -291.34634,0 145.67317,276.40549 0 1 1 291.34634,0 z"
     sodipodi:ry="276.40549"
     sodipodi:rx="145.67317"
     sodipodi:cy="337.05597"
     sodipodi:cx="519.19409"
     id="path14810-6"
     style="color:#000000;fill:none;stroke:none;stroke-width:0.0590288;marker:none;visibility:visible;display:inline;overflow:visible;enable-background:accumulate"
     sodipodi:type="arc" /><g
     id="text14855"
     style="font-size:47px;font-style:normal;font-variant:normal;font-weight:normal;font-stretch:normal;text-align:center;line-height:0%;letter-spacing:0px;word-spacing:0px;writing-mode:lr-tb;text-anchor:middle;fill:#ffffff;fill-opacity:1;stroke:none;font-family:Linux Libertine G;-inkscape-font-specification:Linux Libertine G"
     transform="matrix(1.4166667,0,0,1.4166667,-1.4187891,-7.08333)"><path
       id="path14985"
       style="font-size:48px;font-weight:bold;letter-spacing:8px;fill:#ffffff;font-family:Swis721 BT;-inkscape-font-specification:Swis721 BT Bold"
       d="m 296.156,698.19754 c 0.52607,-2.95368 1.57771,-5.356 3.15492,-7.20697 1.57719,-1.85095 4.11437,-3.56895 7.61153,-5.15401 0.53188,-0.24365 1.30016,-0.57448 2.30484,-0.9925 4.60709,-1.96957 7.117,-4.18721 7.52973,-6.65293 0.24503,-1.46399 -7.2e-4,-2.6933 -0.73723,-3.68793 -0.73656,-0.99459 -1.86765,-1.61958 -3.39328,-1.87497 -1.66436,-0.27855 -3.03435,0.0268 -4.10997,0.91611 -1.07565,0.88935 -1.77468,2.29717 -2.0971,4.22347 l -0.0464,0.27739 -6.1026,-1.02145 c 0.63454,-3.79099 2.14044,-6.54106 4.51771,-8.25021 2.37726,-1.7091 5.44598,-2.24897 9.20619,-1.61961 3.40572,0.57008 5.97028,1.95384 7.69369,4.15128 1.72335,2.19749 2.32709,4.83728 1.81123,7.91938 -0.36889,2.20374 -1.2204,4.02566 -2.55455,5.46578 -1.3342,1.44014 -3.69975,2.93736 -7.09668,4.49164 -0.72207,0.33858 -1.7139,0.77457 -2.9755,1.30799 -3.20932,1.37975 -5.08016,2.52411 -5.6125,3.43306 l 15.02535,2.51496 -0.94408,5.64029 z"
       inkscape:connector-curvature="0" /><path
       id="path14987"
       style="font-size:48px;font-weight:bold;letter-spacing:8px;fill:#ffffff;font-family:Swis721 BT;-inkscape-font-specification:Swis721 BT Bold"
       d="m 339.29458,687.66057 c -0.25517,4.07015 -0.0311,7.05094 0.67229,8.94239 0.70334,1.89147 1.95169,2.89341 3.74506,3.00583 1.79334,0.11243 3.16143,-0.73332 4.10428,-2.53724 0.94282,-1.80391 1.54084,-4.72534 1.79405,-8.7643 0.25416,-4.05452 0.0257,-7.02777 -0.68545,-8.91974 -0.71117,-1.89192 -1.96342,-2.89411 -3.75675,-3.00656 -1.79337,-0.1124 -3.15684,0.7219 -4.0904,2.50289 -0.93358,1.78104 -1.52794,4.70661 -1.78308,8.77673 z m -6.9473,-0.43552 c 0.36073,-5.75431 1.63273,-9.99944 3.816,-12.73542 2.18326,-2.73591 5.30216,-3.9768 9.35671,-3.72266 4.03893,0.25323 6.97795,1.88171 8.81708,4.88544 1.83908,3.00379 2.57827,7.38283 2.21756,13.13714 -0.36076,5.75434 -1.63202,9.98778 -3.8138,12.70033 -2.18182,2.71256 -5.30779,3.94126 -9.37791,3.68611 -4.05455,-0.25418 -6.9943,-1.87096 -8.81927,-4.85036 -1.82499,-2.97938 -2.55711,-7.34624 -2.19637,-13.10058 z"
       inkscape:connector-curvature="0" /><path
       id="path14989"
       style="font-size:48px;font-weight:bold;letter-spacing:8px;fill:#ffffff;font-family:Swis721 BT;-inkscape-font-specification:Swis721 BT Bold"
       d="m 376.81065,704.74098 -0.90256,-22.92756 -8.00943,0.3153 -0.1853,-4.70729 0.51522,-0.0203 c 2.91961,-0.11491 5.02904,-0.65142 6.32831,-1.60955 1.29924,-0.95807 2.02417,-2.5034 2.17479,-4.63601 l 5.36303,-0.21112 1.3202,33.53652 z"
       inkscape:connector-curvature="0" /><path
       id="path14991"
       style="font-size:48px;font-weight:bold;letter-spacing:8px;fill:#ffffff;font-family:Swis721 BT;-inkscape-font-specification:Swis721 BT Bold"
       d="m 415.29374,679.13304 c -0.27252,-1.90243 -0.96358,-3.33848 -2.0732,-4.30816 -1.10964,-0.96963 -2.48421,-1.33704 -4.12372,-1.10223 -1.54672,0.22157 -2.67286,0.92743 -3.37842,2.11759 -0.70556,1.19022 -0.92099,2.74427 -0.64627,4.66218 0.25698,1.79421 0.90602,3.12973 1.94713,4.00658 1.04108,0.87689 2.37366,1.19902 3.99772,0.96638 1.5931,-0.22817 2.76731,-0.90146 3.52263,-2.01987 0.75529,-1.11837 1.00667,-2.55919 0.75413,-4.32247 z m 1.35553,8.63725 c -0.66261,0.88415 -1.49209,1.59487 -2.48845,2.13219 -0.9964,0.53734 -2.15194,0.90016 -3.46664,1.08845 -3.26357,0.46747 -6.01819,-0.14029 -8.26388,-1.82327 -2.24568,-1.68295 -3.60446,-4.17169 -4.07635,-7.46621 -0.50068,-3.49555 0.16224,-6.47116 1.98876,-8.92685 1.82652,-2.45563 4.48756,-3.9338 7.98314,-4.43452 4.05238,-0.5804 7.33415,0.37408 9.84531,2.86347 2.51113,2.48944 4.14997,6.40996 4.91653,11.76157 0.82411,5.75379 0.3264,10.32364 -1.49312,13.70958 -1.81957,3.38595 -4.84834,5.38243 -9.08633,5.98946 -2.92329,0.41871 -5.39114,-0.005 -7.40354,-1.27172 -2.01241,-1.26652 -3.29199,-3.20231 -3.83875,-5.80736 l 6.70833,-0.93718 c 0.30752,1.04509 0.83923,1.78183 1.59512,2.21023 0.75587,0.42841 1.75249,0.55399 2.98987,0.37675 1.67044,-0.23926 2.84235,-1.14898 3.51575,-2.72918 0.67336,-1.58018 0.86477,-3.82531 0.57425,-6.73541 z"
       inkscape:connector-curvature="0" /></g><path
     transform="matrix(1.4166667,0,0,1.4166667,-7.6146105,-7.08333)"
     d="m 268.18803,671.17047 a 11.018867,11.018867 0 1 1 -22.03774,0 11.018867,11.018867 0 1 1 22.03774,0 z"
     sodipodi:ry="11.018867"
     sodipodi:rx="11.018867"
     sodipodi:cy="671.17047"
     sodipodi:cx="257.16916"
     id="path14865"
     style="color:#000000;fill:#ffffff;fill-opacity:1;fill-rule:nonzero;stroke:none;stroke-width:0.1;marker:none;visibility:visible;display:inline;overflow:visible;enable-background:accumulate"
     sodipodi:type="arc" /><path
     transform="matrix(1.4166667,0,0,1.4166667,299.80238,-7.08333)"
     d="m 268.18803,671.17047 a 11.018867,11.018867 0 1 1 -22.03774,0 11.018867,11.018867 0 1 1 22.03774,0 z"
     sodipodi:ry="11.018867"
     sodipodi:rx="11.018867"
     sodipodi:cy="671.17047"
     sodipodi:cx="257.16916"
     id="path14865-1"
     style="color:#000000;fill:#ffffff;fill-opacity:1;fill-rule:nonzero;stroke:none;stroke-width:0.1;marker:none;visibility:visible;display:inline;overflow:visible;enable-background:accumulate"
     sodipodi:type="arc" /></g></svg>